<svg class="main-svg" xmlns="http://www.w3.org/2000/svg" xmlns:xlink="http://www.w3.org/1999/xlink" width="286.11023622387" height="237.35433071148" style="" viewBox="0 0 286.11023622387 237.35433071148"><rect x="0" y="0" width="286.11023622387" height="237.35433071148" style="fill: rgb(0, 0, 0); fill-opacity: 0;"/><defs id="defs-7623f6"><g class="clips"><clipPath id="clip7623f6xyplot" class="plotclip"><rect width="272" height="177"/></clipPath><clipPath class="axesclip" id="clip7623f6x"><rect x="14" y="0" width="272" height="237.35433071148"/></clipPath><clipPath class="axesclip" id="clip7623f6y"><rect x="0" y="10" width="286.11023622387" height="177"/></clipPath><clipPath class="axesclip" id="clip7623f6xy"><rect x="14" y="10" width="272" height="177"/></clipPath></g><g class="gradients"/><g class="patterns"/></defs><g class="bglayer"><rect class="bg" x="14" y="10" width="272" height="177" style="fill: rgb(0, 0, 0); fill-opacity: 0; stroke-width: 0;"/></g><g class="layer-below"><g class="imagelayer"/><g class="shapelayer"/></g><g class="cartesianlayer"><g class="subplot xy"><g class="layer-subplot"><g class="shapelayer"/><g class="imagelayer"/></g><g class="minor-gridlayer"><g class="x"/><g class="y"/></g><g class="gridlayer"><g class="x"/><g class="y"/></g><g class="zerolinelayer"/><g class="layer-between"><g class="shapelayer"/><g class="imagelayer"/></g><path class="xlines-below"/><path class="ylines-below"/><g class="overlines-below"/><g class="xaxislayer-below"/><g class="yaxislayer-below"/><g class="overaxes-below"/><g class="overplot"><g class="xy" transform="translate(14,10)" clip-path="url(#clip7623f6xyplot)"><g class="scatterlayer mlayer"><g class="trace scatter traceffc42f" style="stroke-miterlimit: 2; opacity: 1;"><g class="fills"/><g class="errorbars"/><g class="lines"><path class="js-line" d="M50.08,108.36L72.81,69.54L77.41,70.87L81.57,74.89L86.17,71.77L90.63,65.07L95.23,62.84L99.69,82.03L104.29,80.24L108.9,42.76L113.35,56.15L117.96,43.21L122.41,75.34L127.01,49.9L131.62,42.76L135.78,52.58L140.38,66.41L144.84,29.82L149.44,27.59L153.9,75.78L158.5,76.68L163.1,37.41L167.56,43.66L172.16,39.19L176.62,61.5L181.22,31.16L185.83,44.99L190.13,32.5L194.74,44.99L199.19,24.02L203.8,35.62L208.25,55.7L212.86,70.43L217.46,8.85L221.92,19.56L226.52,37.85L230.97,58.83L235.58,36.96L240.18,41.87L244.34,40.98L248.94,63.73L258,167.26" style="vector-effect: none; fill: none; stroke: rgb(0, 82, 165); stroke-opacity: 1; stroke-width: 2px; opacity: 1;"/></g><g class="points"/><g class="text"/></g><g class="trace scatter trace175c60" style="stroke-miterlimit: 2; opacity: 1;"><g class="fills"/><g class="errorbars"/><g class="lines"><path class="js-line" d="M18.6,168.15L45.48,162.75L50.08,162.39L59.14,161.61L63.75,161.05L68.2,160.52L72.81,78.18L77.41,72.62L81.57,51.24L86.17,93.89L90.63,53.74L95.23,42.94L99.69,110.07L104.29,97.67L108.9,40.51L113.35,45.07L117.96,54.76L122.41,66.31L127.01,59.67L131.62,52.79L135.78,48.99L140.38,51.21L144.84,60.14L149.44,30.37L153.9,49.55L158.5,74.49L163.1,39.47L167.56,51.22L172.16,31.7L176.62,71.64L181.22,37.16L185.83,25.5L190.13,54.63L194.74,47.91L199.19,10.09L203.8,22.25L208.25,83.18L217.46,31.65L221.92,17.35L226.52,16.99L230.97,60.27L235.58,28.69L240.18,50.34L244.34,29.62L248.94,52.8L253.4,41.29L258,119.07" style="vector-effect: none; fill: none; stroke: rgb(0, 82, 165); stroke-opacity: 1; stroke-dasharray: 9px, 9px; stroke-width: 2px; opacity: 1;"/></g><g class="points"/><g class="text"/></g><g class="trace scatter trace770671" style="stroke-miterlimit: 2; opacity: 1;"><g class="fills"/><g class="errorbars"/><g class="lines"/><g class="points"><path class="point" transform="translate(18.6,86.05)" d="M4,0A4,4 0 1,1 0,-4A4,4 0 0,1 4,0Z" style="opacity: 1; stroke-width: 0px; fill: rgb(227, 114, 34); fill-opacity: 1;"/><path class="point" transform="translate(23.2,87.83)" d="M4,0A4,4 0 1,1 0,-4A4,4 0 0,1 4,0Z" style="opacity: 1; stroke-width: 0px; fill: rgb(227, 114, 34); fill-opacity: 1;"/><path class="point" transform="translate(27.36,66.86)" d="M4,0A4,4 0 1,1 0,-4A4,4 0 0,1 4,0Z" style="opacity: 1; stroke-width: 0px; fill: rgb(227, 114, 34); fill-opacity: 1;"/><path class="point" transform="translate(31.97,86.49)" d="M4,0A4,4 0 1,1 0,-4A4,4 0 0,1 4,0Z" style="opacity: 1; stroke-width: 0px; fill: rgb(227, 114, 34); fill-opacity: 1;"/><path class="point" transform="translate(36.42,67.3)" d="M4,0A4,4 0 1,1 0,-4A4,4 0 0,1 4,0Z" style="opacity: 1; stroke-width: 0px; fill: rgb(227, 114, 34); fill-opacity: 1;"/><path class="point" transform="translate(41.03,44.99)" d="M4,0A4,4 0 1,1 0,-4A4,4 0 0,1 4,0Z" style="opacity: 1; stroke-width: 0px; fill: rgb(227, 114, 34); fill-opacity: 1;"/><path class="point" transform="translate(45.48,93.63)" d="M4,0A4,4 0 1,1 0,-4A4,4 0 0,1 4,0Z" style="opacity: 1; stroke-width: 0px; fill: rgb(227, 114, 34); fill-opacity: 1;"/><path class="point" transform="translate(54.69,66.41)" d="M4,0A4,4 0 1,1 0,-4A4,4 0 0,1 4,0Z" style="opacity: 1; stroke-width: 0px; fill: rgb(227, 114, 34); fill-opacity: 1;"/><path class="point" transform="translate(59.14,66.86)" d="M4,0A4,4 0 1,1 0,-4A4,4 0 0,1 4,0Z" style="opacity: 1; stroke-width: 0px; fill: rgb(227, 114, 34); fill-opacity: 1;"/><path class="point" transform="translate(63.75,64.63)" d="M4,0A4,4 0 1,1 0,-4A4,4 0 0,1 4,0Z" style="opacity: 1; stroke-width: 0px; fill: rgb(227, 114, 34); fill-opacity: 1;"/><path class="point" transform="translate(68.2,86.05)" d="M4,0A4,4 0 1,1 0,-4A4,4 0 0,1 4,0Z" style="opacity: 1; stroke-width: 0px; fill: rgb(227, 114, 34); fill-opacity: 1;"/><path class="point" transform="translate(253.4,114.6)" d="M4,0A4,4 0 1,1 0,-4A4,4 0 0,1 4,0Z" style="opacity: 1; stroke-width: 0px; fill: rgb(227, 114, 34); fill-opacity: 1;"/></g><g class="text"/></g></g></g></g><path class="xlines-above crisp" d="M0,0" style="fill: none;"/><path class="ylines-above crisp" d="M0,0" style="fill: none;"/><g class="overlines-above"/><g class="xaxislayer-above"><g class="xtick"><text text-anchor="middle" x="0" y="195" transform="translate(86.81,0)" style="font-family: 'Open Sans', verdana, arial, sans-serif; font-size: 7px; fill: rgb(0, 0, 0); fill-opacity: 1; white-space: pre; opacity: 1;">2022</text></g><g class="xtick"><text text-anchor="middle" x="0" y="195" style="font-family: 'Open Sans', verdana, arial, sans-serif; font-size: 7px; fill: rgb(0, 0, 0); fill-opacity: 1; white-space: pre; opacity: 1;" transform="translate(195.22,0)">2024</text></g></g><g class="yaxislayer-above"><g class="ytick"><text text-anchor="end" x="13" y="2.4499999999999997" transform="translate(0,178.15)" style="font-family: 'Open Sans', verdana, arial, sans-serif; font-size: 7px; fill: rgb(0, 0, 0); fill-opacity: 1; white-space: pre; opacity: 1;">0</text></g><g class="ytick"><text text-anchor="end" x="13" y="2.4499999999999997" style="font-family: 'Open Sans', verdana, arial, sans-serif; font-size: 7px; fill: rgb(0, 0, 0); fill-opacity: 1; white-space: pre; opacity: 1;" transform="translate(0,133.53)">100</text></g><g class="ytick"><text text-anchor="end" x="13" y="2.4499999999999997" style="font-family: 'Open Sans', verdana, arial, sans-serif; font-size: 7px; fill: rgb(0, 0, 0); fill-opacity: 1; white-space: pre; opacity: 1;" transform="translate(0,88.91)">200</text></g><g class="ytick"><text text-anchor="end" x="13" y="2.4499999999999997" style="font-family: 'Open Sans', verdana, arial, sans-serif; font-size: 7px; fill: rgb(0, 0, 0); fill-opacity: 1; white-space: pre; opacity: 1;" transform="translate(0,44.28)">300</text></g></g><g class="overaxes-above"/></g></g><g class="polarlayer"/><g class="smithlayer"/><g class="ternarylayer"/><g class="geolayer"/><g class="funnelarealayer"/><g class="pielayer"/><g class="iciclelayer"/><g class="treemaplayer"/><g class="sunburstlayer"/><g class="glimages"/><defs id="topdefs-7623f6"><g class="clips"/><clipPath id="legend7623f6"><rect width="211" height="29" x="0" y="0"/></clipPath></defs><g class="layer-above"><g class="imagelayer"/><g class="shapelayer"/></g><g class="infolayer"><g class="legend" pointer-events="all" transform="translate(14,193.4)"><rect class="bg" shape-rendering="crispEdges" width="211" height="29" x="0" y="0" style="stroke: rgb(68, 68, 68); stroke-opacity: 1; fill: rgb(0, 0, 0); fill-opacity: 0; stroke-width: 0px;"/><g class="scrollbox" transform="" clip-path="url(#legend7623f6)"><g class="groups"><g class="traces" transform="translate(0,14.5)" style="opacity: 1;"><text class="legendtext" text-anchor="start" x="40" y="2.73" style="font-family: 'Open Sans', verdana, arial, sans-serif; font-size: 7px; fill: rgb(0, 0, 0); fill-opacity: 1; white-space: pre;">Actual</text><g class="layers" style="opacity: 1;"><g class="legendfill"/><g class="legendlines"><path class="js-line" d="M5,0h30" style="fill: none; stroke: rgb(0, 82, 165); stroke-opacity: 1; stroke-width: 5px;"/></g><g class="legendsymbols"><g class="legendpoints"/></g></g><rect class="legendtoggle" x="0" y="-9.5" width="64.25" height="19" style="fill: rgb(0, 0, 0); fill-opacity: 0;"/></g><g class="traces" transform="translate(66.75,14.5)" style="opacity: 1;"><text class="legendtext" text-anchor="start" x="40" y="2.73" style="font-family: 'Open Sans', verdana, arial, sans-serif; font-size: 7px; fill: rgb(0, 0, 0); fill-opacity: 1; white-space: pre;">Forecast</text><g class="layers" style="opacity: 1;"><g class="legendfill"/><g class="legendlines"><path class="js-line" d="M5,0h30" style="fill: none; stroke: rgb(0, 82, 165); stroke-opacity: 1; stroke-dasharray: 15px, 15px; stroke-width: 5px;"/></g><g class="legendsymbols"><g class="legendpoints"/></g></g><rect class="legendtoggle" x="0" y="-9.5" width="72.1875" height="19" style="fill: rgb(0, 0, 0); fill-opacity: 0;"/></g><g class="traces" transform="translate(141.4375,14.5)" style="opacity: 1;"><text class="legendtext" text-anchor="start" x="40" y="2.73" style="font-family: 'Open Sans', verdana, arial, sans-serif; font-size: 7px; fill: rgb(0, 0, 0); fill-opacity: 1; white-space: pre;">Outlier</text><g class="layers" style="opacity: 1;"><g class="legendfill"/><g class="legendlines"/><g class="legendsymbols"><g class="legendpoints"><path class="scatterpts" transform="translate(20,0)" d="M6,0A6,6 0 1,1 0,-6A6,6 0 0,1 6,0Z" style="opacity: 1; stroke-width: 0px; fill: rgb(227, 114, 34); fill-opacity: 1;"/></g></g></g><rect class="legendtoggle" x="0" y="-9.5" width="66.234375" height="19" style="fill: rgb(0, 0, 0); fill-opacity: 0;"/></g></g></g><rect class="scrollbar" rx="20" ry="3" width="0" height="0" x="0" y="0" style="fill: rgb(128, 139, 164); fill-opacity: 1;"/></g><g class="g-gtitle"><text class="gtitle" x="14.305511811193501" y="5" text-anchor="start" dy="0em" style="opacity: 1; font-family: 'Open Sans', verdana, arial, sans-serif; font-size: 17px; fill: rgb(42, 63, 95); fill-opacity: 1; white-space: pre;">ARIMA Outlier Detection</text></g><g class="g-xtitle"/><g class="g-ytitle"/><g class="annotation" data-index="0" style="opacity: 1;"><g class="annotation-text-g" transform="rotate(0,109.5,230.56)"><g class="cursor-pointer" transform="translate(14,225)"><rect class="bg" x="0.5" y="0.5" width="190" height="11" style="stroke-width: 1px; stroke: rgb(0, 0, 0); stroke-opacity: 0; fill: rgb(0, 0, 0); fill-opacity: 0;"/><text class="annotation-text" text-anchor="start" x="2" y="8" style="font-family: 'Open Sans', verdana, arial, sans-serif; font-size: 6px; fill: rgb(0, 0, 0); fill-opacity: 1; white-space: pre;">Orange dots = flagged outliers; dashed line = ARIMA forecast</text></g></g></g></g></svg>