<svg class="main-svg" xmlns="http://www.w3.org/2000/svg" xmlns:xlink="http://www.w3.org/1999/xlink" width="286.11023622387" height="237.35433071148" style="" viewBox="0 0 286.11023622387 237.35433071148"><rect x="0" y="0" width="286.11023622387" height="237.35433071148" style="fill: rgb(0, 0, 0); fill-opacity: 0;"/><defs id="defs-70da3d"><g class="clips"><clipPath id="clip70da3dxyplot" class="plotclip"><rect width="272" height="177"/></clipPath><clipPath class="axesclip" id="clip70da3dx"><rect x="14" y="0" width="272" height="237.35433071148"/></clipPath><clipPath class="axesclip" id="clip70da3dy"><rect x="0" y="10" width="286.11023622387" height="177"/></clipPath><clipPath class="axesclip" id="clip70da3dxy"><rect x="14" y="10" width="272" height="177"/></clipPath></g><g class="gradients"/><g class="patterns"/></defs><g class="bglayer"><rect class="bg" x="14" y="10" width="272" height="177" style="fill: rgb(0, 0, 0); fill-opacity: 0; stroke-width: 0;"/></g><g class="layer-below"><g class="imagelayer"/><g class="shapelayer"/></g><g class="cartesianlayer"><g class="subplot xy"><g class="layer-subplot"><g class="shapelayer"/><g class="imagelayer"/></g><g class="minor-gridlayer"><g class="x"/><g class="y"/></g><g class="gridlayer"><g class="x"/><g class="y"><path class="ygrid crisp" transform="translate(0,179.05)" d="M14,0h272" style="stroke: rgb(200, 200, 200); stroke-opacity: 0.3; stroke-width: 1px;"/><path class="ygrid crisp" transform="translate(0,134.17000000000002)" d="M14,0h272" style="stroke: rgb(200, 200, 200); stroke-opacity: 0.3; stroke-width: 1px;"/><path class="ygrid crisp" transform="translate(0,89.3)" d="M14,0h272" style="stroke: rgb(200, 200, 200); stroke-opacity: 0.3; stroke-width: 1px;"/><path class="ygrid crisp" transform="translate(0,44.43)" d="M14,0h272" style="stroke: rgb(200, 200, 200); stroke-opacity: 0.3; stroke-width: 1px;"/></g></g><g class="zerolinelayer"/><g class="layer-between"><g class="shapelayer"/><g class="imagelayer"/></g><path class="xlines-below"/><path class="ylines-below"/><g class="overlines-below"/><g class="xaxislayer-below"/><g class="yaxislayer-below"/><g class="overaxes-below"/><g class="overplot"><g class="xy" transform="translate(14,10)" clip-path="url(#clip70da3dxyplot)"><g class="scatterlayer mlayer"><g class="trace scatter trace3dd490" style="stroke-miterlimit: 2; opacity: 1;"><g class="fills"/><g class="errorbars"/><g class="lines"><path class="js-line" d="M0,69.88L6.46,71.22L12.29,75.26L18.75,72.12L25.01,65.39L31.47,63.15L37.72,82.44L44.18,80.65L50.64,42.95L56.89,56.42L63.35,43.4L69.6,75.71L76.06,50.13L82.52,42.95L88.36,52.83L94.82,66.74L101.07,29.94L107.53,27.7L113.78,76.16L120.24,77.06L126.7,37.57L132.95,43.85L139.41,39.36L145.66,61.8L152.12,31.29L158.58,45.2L164.63,32.63L171.09,45.2L177.34,24.11L183.8,35.77L190.05,55.97L196.51,70.78L202.97,8.85L209.22,19.62L215.68,38.02L221.93,59.11L228.39,37.12L234.85,42.06L240.69,41.16L247.15,64.04L259.86,168.15" style="vector-effect: none; fill: none; stroke: rgb(0, 82, 165); stroke-opacity: 1; stroke-width: 2px; opacity: 1;"/></g><g class="points"/><g class="text"/></g><g class="trace scatter trace9663c5" style="stroke-miterlimit: 2; opacity: 1;"><g class="fills"/><g class="errorbars"/><g class="lines"><path class="js-line" d="M0,78.57L6.46,72.98L12.29,51.48L18.75,94.37L25.01,53.99L31.47,43.13L37.72,110.65L44.18,98.17L50.64,40.69L56.89,45.27L63.35,55.02L69.6,66.64L76.06,59.96L82.52,53.03L88.36,49.22L94.82,51.45L101.07,60.43L107.53,30.49L113.78,49.78L120.24,74.86L126.7,39.65L132.95,51.45L139.41,31.83L145.66,71.99L152.12,37.32L158.58,25.59L164.63,54.89L171.09,48.13L177.34,10.1L183.8,22.32L190.05,83.6L202.97,31.78L209.22,17.39L215.68,17.04L221.93,60.56L228.39,28.81L234.85,50.57L240.69,29.74L247.15,53.05L253.4,41.47L259.86,119.69" style="vector-effect: none; fill: none; stroke: rgb(0, 82, 165); stroke-opacity: 1; stroke-dasharray: 9px, 9px; stroke-width: 2px; opacity: 1;"/></g><g class="points"/><g class="text"/></g><g class="trace scatter traceb35e69" style="stroke-miterlimit: 2; opacity: 1;"><g class="fills"/><g class="errorbars"/><g class="lines"/><g class="points"><path class="point" transform="translate(253.4,115.2)" d="M4,0A4,4 0 1,1 0,-4A4,4 0 0,1 4,0Z" style="opacity: 1; stroke-width: 0px; fill: rgb(227, 114, 34); fill-opacity: 1;"/></g><g class="text"/></g></g></g></g><path class="xlines-above crisp" d="M0,0" style="fill: none;"/><path class="ylines-above crisp" d="M0,0" style="fill: none;"/><g class="overlines-above"/><g class="xaxislayer-above"><g class="xtick"><text text-anchor="middle" x="0" y="195" transform="translate(14,0)" style="font-family: 'Open Sans', verdana, arial, sans-serif; font-size: 7px; fill: rgb(0, 0, 0); fill-opacity: 1; white-space: pre; opacity: 1;">2022</text></g><g class="xtick"><text text-anchor="middle" x="0" y="195" style="font-family: 'Open Sans', verdana, arial, sans-serif; font-size: 7px; fill: rgb(0, 0, 0); fill-opacity: 1; white-space: pre; opacity: 1;" transform="translate(90.06,0)">2023</text></g><g class="xtick"><text text-anchor="middle" x="0" y="195" style="font-family: 'Open Sans', verdana, arial, sans-serif; font-size: 7px; fill: rgb(0, 0, 0); fill-opacity: 1; white-space: pre; opacity: 1;" transform="translate(166.12,0)">2024</text></g><g class="xtick"><text text-anchor="middle" x="0" y="195" style="font-family: 'Open Sans', verdana, arial, sans-serif; font-size: 7px; fill: rgb(0, 0, 0); fill-opacity: 1; white-space: pre; opacity: 1;" transform="translate(242.39,0)">2025</text></g></g><g class="yaxislayer-above"><g class="ytick"><text text-anchor="end" x="13" y="2.4499999999999997" transform="translate(0,179.05)" style="font-family: 'Open Sans', verdana, arial, sans-serif; font-size: 7px; fill: rgb(0, 0, 0); fill-opacity: 1; white-space: pre; opacity: 1;">0</text></g><g class="ytick"><text text-anchor="end" x="13" y="2.4499999999999997" style="font-family: 'Open Sans', verdana, arial, sans-serif; font-size: 7px; fill: rgb(0, 0, 0); fill-opacity: 1; white-space: pre; opacity: 1;" transform="translate(0,134.17000000000002)">100</text></g><g class="ytick"><text text-anchor="end" x="13" y="2.4499999999999997" style="font-family: 'Open Sans', verdana, arial, sans-serif; font-size: 7px; fill: rgb(0, 0, 0); fill-opacity: 1; white-space: pre; opacity: 1;" transform="translate(0,89.3)">200</text></g><g class="ytick"><text text-anchor="end" x="13" y="2.4499999999999997" style="font-family: 'Open Sans', verdana, arial, sans-serif; font-size: 7px; fill: rgb(0, 0, 0); fill-opacity: 1; white-space: pre; opacity: 1;" transform="translate(0,44.43)">300</text></g></g><g class="overaxes-above"/></g></g><g class="polarlayer"/><g class="smithlayer"/><g class="ternarylayer"/><g class="geolayer"/><g class="funnelarealayer"/><g class="pielayer"/><g class="iciclelayer"/><g class="treemaplayer"/><g class="sunburstlayer"/><g class="glimages"/><defs id="topdefs-70da3d"><g class="clips"/><clipPath id="legend70da3d"><rect width="211" height="29" x="0" y="0"/></clipPath></defs><g class="layer-above"><g class="imagelayer"/><g class="shapelayer"/></g><g class="infolayer"><g class="legend" pointer-events="all" transform="translate(14,193.4)"><rect class="bg" shape-rendering="crispEdges" width="211" height="29" x="0" y="0" style="stroke: rgb(68, 68, 68); stroke-opacity: 1; fill: rgb(0, 0, 0); fill-opacity: 0; stroke-width: 0px;"/><g class="scrollbox" transform="" clip-path="url(#legend70da3d)"><g class="groups"><g class="traces" transform="translate(0,14.5)" style="opacity: 1;"><text class="legendtext" text-anchor="start" x="40" y="2.73" style="font-family: 'Open Sans', verdana, arial, sans-serif; font-size: 7px; fill: rgb(0, 0, 0); fill-opacity: 1; white-space: pre;">Actual</text><g class="layers" style="opacity: 1;"><g class="legendfill"/><g class="legendlines"><path class="js-line" d="M5,0h30" style="fill: none; stroke: rgb(0, 82, 165); stroke-opacity: 1; stroke-width: 5px;"/></g><g class="legendsymbols"><g class="legendpoints"/></g></g><rect class="legendtoggle" x="0" y="-9.5" width="64.25" height="19" style="fill: rgb(0, 0, 0); fill-opacity: 0;"/></g><g class="traces" transform="translate(66.75,14.5)" style="opacity: 1;"><text class="legendtext" text-anchor="start" x="40" y="2.73" style="font-family: 'Open Sans', verdana, arial, sans-serif; font-size: 7px; fill: rgb(0, 0, 0); fill-opacity: 1; white-space: pre;">Forecast</text><g class="layers" style="opacity: 1;"><g class="legendfill"/><g class="legendlines"><path class="js-line" d="M5,0h30" style="fill: none; stroke: rgb(0, 82, 165); stroke-opacity: 1; stroke-dasharray: 15px, 15px; stroke-width: 5px;"/></g><g class="legendsymbols"><g class="legendpoints"/></g></g><rect class="legendtoggle" x="0" y="-9.5" width="72.1875" height="19" style="fill: rgb(0, 0, 0); fill-opacity: 0;"/></g><g class="traces" transform="translate(141.4375,14.5)" style="opacity: 1;"><text class="legendtext" text-anchor="start" x="40" y="2.73" style="font-family: 'Open Sans', verdana, arial, sans-serif; font-size: 7px; fill: rgb(0, 0, 0); fill-opacity: 1; white-space: pre;">Outlier</text><g class="layers" style="opacity: 1;"><g class="legendfill"/><g class="legendlines"/><g class="legendsymbols"><g class="legendpoints"><path class="scatterpts" transform="translate(20,0)" d="M6,0A6,6 0 1,1 0,-6A6,6 0 0,1 6,0Z" style="opacity: 1; stroke-width: 0px; fill: rgb(227, 114, 34); fill-opacity: 1;"/></g></g></g><rect class="legendtoggle" x="0" y="-9.5" width="66.234375" height="19" style="fill: rgb(0, 0, 0); fill-opacity: 0;"/></g></g></g><rect class="scrollbar" rx="20" ry="3" width="0" height="0" x="0" y="0" style="fill: rgb(128, 139, 164); fill-opacity: 1;"/></g><g class="g-gtitle"/><g class="g-xtitle"/><g class="g-ytitle"/><g class="annotation" data-index="0" style="opacity: 1;"><g class="annotation-text-g" transform="rotate(0,133.5,230.56)"><g class="cursor-pointer" transform="translate(14,225)"><rect class="bg" x="0.5" y="0.5" width="238" height="11" style="stroke-width: 1px; stroke: rgb(0, 0, 0); stroke-opacity: 0; fill: rgb(0, 0, 0); fill-opacity: 0;"/><text class="annotation-text" text-anchor="start" x="2" y="8" style="font-family: 'Open Sans', verdana, arial, sans-serif; font-size: 6px; fill: rgb(0, 0, 0); fill-opacity: 1; white-space: pre;">Orange dots represent the flagged outliers; dashed line is the ARIMA forecast</text></g></g></g></g></svg>