<svg class="main-svg" xmlns="http://www.w3.org/2000/svg" xmlns:xlink="http://www.w3.org/1999/xlink" width="286.11023622387" height="237.35433071148" style="" viewBox="0 0 286.11023622387 237.35433071148"><rect x="0" y="0" width="286.11023622387" height="237.35433071148" style="fill: rgb(0, 0, 0); fill-opacity: 0;"/><defs id="defs-933509"><g class="clips"><clipPath id="clip933509xyplot" class="plotclip"><rect width="272" height="177"/></clipPath><clipPath class="axesclip" id="clip933509x"><rect x="14" y="0" width="272" height="237.35433071148"/></clipPath><clipPath class="axesclip" id="clip933509y"><rect x="0" y="10" width="286.11023622387" height="177"/></clipPath><clipPath class="axesclip" id="clip933509xy"><rect x="14" y="10" width="272" height="177"/></clipPath></g><g class="gradients"/><g class="patterns"/></defs><g class="bglayer"><rect class="bg" x="14" y="10" width="272" height="177" style="fill: rgb(0, 0, 0); fill-opacity: 0; stroke-width: 0;"/></g><g class="layer-below"><g class="imagelayer"/><g class="shapelayer"/></g><g class="cartesianlayer"><g class="subplot xy"><g class="layer-subplot"><g class="shapelayer"/><g class="imagelayer"/></g><g class="minor-gridlayer"><g class="x"/><g class="y"/></g><g class="gridlayer"><g class="x"/><g class="y"><path class="ygrid crisp" transform="translate(0,178.15)" d="M14,0h272" style="stroke: rgb(200, 200, 200); stroke-opacity: 0.3; stroke-width: 1px;"/><path class="ygrid crisp" transform="translate(0,133.53)" d="M14,0h272" style="stroke: rgb(200, 200, 200); stroke-opacity: 0.3; stroke-width: 1px;"/><path class="ygrid crisp" transform="translate(0,88.91)" d="M14,0h272" style="stroke: rgb(200, 200, 200); stroke-opacity: 0.3; stroke-width: 1px;"/><path class="ygrid crisp" transform="translate(0,44.28)" d="M14,0h272" style="stroke: rgb(200, 200, 200); stroke-opacity: 0.3; stroke-width: 1px;"/></g></g><g class="zerolinelayer"/><g class="layer-between"><g class="shapelayer"/><g class="imagelayer"/></g><path class="xlines-below"/><path class="ylines-below"/><g class="overlines-below"/><g class="xaxislayer-below"/><g class="yaxislayer-below"/><g class="overaxes-below"/><g class="overplot"><g class="xy" transform="translate(14,10)" clip-path="url(#clip933509xyplot)"><g class="scatterlayer mlayer"><g class="trace scatter trace0dcfe0" style="stroke-miterlimit: 2; opacity: 1;"><g class="fills"/><g class="errorbars"/><g class="lines"><path class="js-line" d="M0,86.05L5.23,87.83L9.96,66.86L15.19,86.49L20.25,67.3L35.77,108.36L41,66.41L46.06,66.86L51.3,64.63L56.36,86.05L61.59,69.54L66.82,70.87L71.54,74.89L76.77,71.77L81.84,65.07L87.07,62.84L92.13,82.03L97.36,80.24L102.59,42.76L107.65,56.15L112.88,43.21L117.95,75.34L123.18,49.9L128.41,42.76L133.13,52.58L138.36,66.41L143.42,29.82L148.66,27.59L153.72,75.78L158.95,76.68L164.18,37.41L169.24,43.66L174.47,39.19L179.53,61.5L184.76,31.16L190,44.99L194.89,32.5L200.12,44.99L205.18,24.02L210.41,35.62L215.47,55.7L220.7,70.43L225.94,8.85L231,19.56L236.23,37.85L241.29,58.83L246.52,36.96L251.75,41.87L256.48,40.98L261.71,63.73L266.77,114.6L272,167.26" style="vector-effect: none; fill: none; stroke: rgb(0, 126, 255); stroke-opacity: 1; stroke-width: 2px; opacity: 1;"/></g><g class="points"/><g class="text"/></g><g class="trace scatter trace0db701" style="stroke-miterlimit: 2; opacity: 1;"><g class="fills"/><g class="errorbars"/><g class="lines"><path class="js-line" d="M0,168.15L30.54,162.75L35.77,162.39L46.06,161.61L51.3,161.05L56.36,160.52L61.59,78.18L66.82,72.62L71.54,51.24L76.77,93.89L81.84,53.74L87.07,42.94L92.13,110.07L97.36,97.67L102.59,40.51L107.65,45.07L112.88,54.76L117.95,66.31L123.18,59.67L128.41,52.79L133.13,48.99L138.36,51.21L143.42,60.14L148.66,30.37L153.72,49.55L158.95,74.49L164.18,39.47L169.24,51.22L174.47,31.7L179.53,71.64L184.76,37.16L190,25.5L194.89,54.63L200.12,47.91L205.18,10.09L210.41,22.25L215.47,83.18L225.94,31.65L231,17.35L236.23,16.99L241.29,60.27L246.52,28.69L251.75,50.34L256.48,29.62L261.71,52.8L266.77,41.29L272,119.07" style="vector-effect: none; fill: none; stroke: rgb(123, 210, 0); stroke-opacity: 1; stroke-dasharray: 9px, 9px; stroke-width: 2px; opacity: 1;"/></g><g class="points"/><g class="text"/></g><g class="trace scatter trace212253" style="stroke-miterlimit: 2; opacity: 1;"><g class="fills"/><g class="errorbars"/><g class="lines"/><g class="points"><path class="point" transform="translate(25.48,44.99)" d="M4,0A4,4 0 1,1 0,-4A4,4 0 0,1 4,0Z" style="opacity: 1; stroke-width: 0px; fill: rgb(219, 87, 0); fill-opacity: 1;"/></g><g class="text"/></g></g></g></g><path class="xlines-above crisp" d="M0,0" style="fill: none;"/><path class="ylines-above crisp" d="M0,0" style="fill: none;"/><g class="overlines-above"/><g class="xaxislayer-above"><g class="xtick"><text text-anchor="middle" x="0" y="195" transform="translate(14,0)" style="font-family: 'Open Sans', verdana, arial, sans-serif; font-size: 7px; fill: rgb(0, 0, 0); fill-opacity: 1; white-space: pre; opacity: 1;">2021</text></g><g class="xtick"><text text-anchor="middle" x="0" y="195" style="font-family: 'Open Sans', verdana, arial, sans-serif; font-size: 7px; fill: rgb(0, 0, 0); fill-opacity: 1; white-space: pre; opacity: 1;" transform="translate(75.59,0)">2022</text></g><g class="xtick"><text text-anchor="middle" x="0" y="195" style="font-family: 'Open Sans', verdana, arial, sans-serif; font-size: 7px; fill: rgb(0, 0, 0); fill-opacity: 1; white-space: pre; opacity: 1;" transform="translate(137.18,0)">2023</text></g><g class="xtick"><text text-anchor="middle" x="0" y="195" style="font-family: 'Open Sans', verdana, arial, sans-serif; font-size: 7px; fill: rgb(0, 0, 0); fill-opacity: 1; white-space: pre; opacity: 1;" transform="translate(198.76,0)">2024</text></g><g class="xtick"><text text-anchor="middle" x="0" y="195" style="font-family: 'Open Sans', verdana, arial, sans-serif; font-size: 7px; fill: rgb(0, 0, 0); fill-opacity: 1; white-space: pre; opacity: 1;" transform="translate(260.52,0)">2025</text></g></g><g class="yaxislayer-above"><g class="ytick"><text text-anchor="end" x="13" y="2.4499999999999997" transform="translate(0,178.15)" style="font-family: 'Open Sans', verdana, arial, sans-serif; font-size: 7px; fill: rgb(0, 0, 0); fill-opacity: 1; white-space: pre; opacity: 1;">0</text></g><g class="ytick"><text text-anchor="end" x="13" y="2.4499999999999997" style="font-family: 'Open Sans', verdana, arial, sans-serif; font-size: 7px; fill: rgb(0, 0, 0); fill-opacity: 1; white-space: pre; opacity: 1;" transform="translate(0,133.53)">100</text></g><g class="ytick"><text text-anchor="end" x="13" y="2.4499999999999997" style="font-family: 'Open Sans', verdana, arial, sans-serif; font-size: 7px; fill: rgb(0, 0, 0); fill-opacity: 1; white-space: pre; opacity: 1;" transform="translate(0,88.91)">200</text></g><g class="ytick"><text text-anchor="end" x="13" y="2.4499999999999997" style="font-family: 'Open Sans', verdana, arial, sans-serif; font-size: 7px; fill: rgb(0, 0, 0); fill-opacity: 1; white-space: pre; opacity: 1;" transform="translate(0,44.28)">300</text></g></g><g class="overaxes-above"/></g></g><g class="polarlayer"/><g class="smithlayer"/><g class="ternarylayer"/><g class="geolayer"/><g class="funnelarealayer"/><g class="pielayer"/><g class="iciclelayer"/><g class="treemaplayer"/><g class="sunburstlayer"/><g class="glimages"/><defs id="topdefs-933509"><g class="clips"/><clipPath id="legend933509"><rect width="211" height="29" x="0" y="0"/></clipPath></defs><g class="layer-above"><g class="imagelayer"/><g class="shapelayer"/></g><g class="infolayer"><g class="legend" pointer-events="all" transform="translate(14,193.4)"><rect class="bg" shape-rendering="crispEdges" width="211" height="29" x="0" y="0" style="stroke: rgb(68, 68, 68); stroke-opacity: 1; fill: rgb(0, 0, 0); fill-opacity: 0; stroke-width: 0px;"/><g class="scrollbox" transform="" clip-path="url(#legend933509)"><g class="groups"><g class="traces" transform="translate(0,14.5)" style="opacity: 1;"><text class="legendtext" text-anchor="start" x="40" y="2.73" style="font-family: 'Open Sans', verdana, arial, sans-serif; font-size: 7px; fill: rgb(0, 0, 0); fill-opacity: 1; white-space: pre;">Actual</text><g class="layers" style="opacity: 1;"><g class="legendfill"/><g class="legendlines"><path class="js-line" d="M5,0h30" style="fill: none; stroke: rgb(0, 126, 255); stroke-opacity: 1; stroke-width: 5px;"/></g><g class="legendsymbols"><g class="legendpoints"/></g></g><rect class="legendtoggle" x="0" y="-9.5" width="64.25" height="19" style="fill: rgb(0, 0, 0); fill-opacity: 0;"/></g><g class="traces" transform="translate(66.75,14.5)" style="opacity: 1;"><text class="legendtext" text-anchor="start" x="40" y="2.73" style="font-family: 'Open Sans', verdana, arial, sans-serif; font-size: 7px; fill: rgb(0, 0, 0); fill-opacity: 1; white-space: pre;">Forecast</text><g class="layers" style="opacity: 1;"><g class="legendfill"/><g class="legendlines"><path class="js-line" d="M5,0h30" style="fill: none; stroke: rgb(123, 210, 0); stroke-opacity: 1; stroke-dasharray: 15px, 15px; stroke-width: 5px;"/></g><g class="legendsymbols"><g class="legendpoints"/></g></g><rect class="legendtoggle" x="0" y="-9.5" width="72.1875" height="19" style="fill: rgb(0, 0, 0); fill-opacity: 0;"/></g><g class="traces" transform="translate(141.4375,14.5)" style="opacity: 1;"><text class="legendtext" text-anchor="start" x="40" y="2.73" style="font-family: 'Open Sans', verdana, arial, sans-serif; font-size: 7px; fill: rgb(0, 0, 0); fill-opacity: 1; white-space: pre;">Outlier</text><g class="layers" style="opacity: 1;"><g class="legendfill"/><g class="legendlines"/><g class="legendsymbols"><g class="legendpoints"><path class="scatterpts" transform="translate(20,0)" d="M6,0A6,6 0 1,1 0,-6A6,6 0 0,1 6,0Z" style="opacity: 1; stroke-width: 0px; fill: rgb(219, 87, 0); fill-opacity: 1;"/></g></g></g><rect class="legendtoggle" x="0" y="-9.5" width="66.234375" height="19" style="fill: rgb(0, 0, 0); fill-opacity: 0;"/></g></g></g><rect class="scrollbar" rx="20" ry="3" width="0" height="0" x="0" y="0" style="fill: rgb(128, 139, 164); fill-opacity: 1;"/></g><g class="g-gtitle"/><g class="g-xtitle"/><g class="g-ytitle"/><g class="annotation" data-index="0" style="opacity: 1;"><g class="annotation-text-g" transform="rotate(0,145,227.06)"><g class="cursor-pointer" transform="translate(14,218)"><rect class="bg" x="0.5" y="0.5" width="261" height="18" style="stroke-width: 1px; stroke: rgb(0, 0, 0); stroke-opacity: 0; fill: rgb(0, 0, 0); fill-opacity: 0;"/><text class="annotation-text" text-anchor="start" x="2" y="8" style="font-family: 'Open Sans', verdana, arial, sans-serif; font-size: 6px; fill: rgb(0, 0, 0); fill-opacity: 1; white-space: pre;"><tspan class="line" dy="0em" x="2" y="8">Orange dots represent the flagged outliers; dashed line is the ARIMA forecast. </tspan><tspan class="line" dy="1.3em" x="2" y="8"> Note: The monthly ARIMA needs 12 periods to learn the dynamics of the timeseries.</tspan></text></g></g></g></g></svg>