<svg class="main-svg" xmlns="http://www.w3.org/2000/svg" xmlns:xlink="http://www.w3.org/1999/xlink" width="286.11023622387" height="237.35433071148" style="" viewBox="0 0 286.11023622387 237.35433071148"><rect x="0" y="0" width="286.11023622387" height="237.35433071148" style="fill: rgb(0, 0, 0); fill-opacity: 0;"/><defs id="defs-853eb7"><g class="clips"><clipPath id="clip853eb7xyplot" class="plotclip"><rect width="272" height="177"/></clipPath><clipPath class="axesclip" id="clip853eb7x"><rect x="14" y="0" width="272" height="237.35433071148"/></clipPath><clipPath class="axesclip" id="clip853eb7y"><rect x="0" y="10" width="286.11023622387" height="177"/></clipPath><clipPath class="axesclip" id="clip853eb7xy"><rect x="14" y="10" width="272" height="177"/></clipPath></g><g class="gradients"/><g class="patterns"/></defs><g class="bglayer"><rect class="bg" x="14" y="10" width="272" height="177" style="fill: rgb(0, 0, 0); fill-opacity: 0; stroke-width: 0;"/></g><g class="layer-below"><g class="imagelayer"/><g class="shapelayer"/></g><g class="cartesianlayer"><g class="subplot xy"><g class="layer-subplot"><g class="shapelayer"/><g class="imagelayer"/></g><g class="minor-gridlayer"><g class="x"/><g class="y"/></g><g class="gridlayer"><g class="x"/><g class="y"><path class="ygrid crisp" transform="translate(0,174.02)" d="M14,0h272" style="stroke: rgb(200, 200, 200); stroke-opacity: 0.3; stroke-width: 1px;"/><path class="ygrid crisp" transform="translate(0,130.55)" d="M14,0h272" style="stroke: rgb(200, 200, 200); stroke-opacity: 0.3; stroke-width: 1px;"/><path class="ygrid crisp" transform="translate(0,87.09)" d="M14,0h272" style="stroke: rgb(200, 200, 200); stroke-opacity: 0.3; stroke-width: 1px;"/><path class="ygrid crisp" transform="translate(0,43.62)" d="M14,0h272" style="stroke: rgb(200, 200, 200); stroke-opacity: 0.3; stroke-width: 1px;"/></g></g><g class="zerolinelayer"/><g class="layer-between"><g class="shapelayer"/><g class="imagelayer"/></g><path class="xlines-below"/><path class="ylines-below"/><g class="overlines-below"/><g class="xaxislayer-below"/><g class="yaxislayer-below"/><g class="overaxes-below"/><g class="overplot"><g class="xy" transform="translate(14,10)" clip-path="url(#clip853eb7xyplot)"><g class="scatterlayer mlayer"><g class="trace scatter tracea331bb" style="stroke-miterlimit: 2; opacity: 1;"><g class="fills"/><g class="errorbars"/><g class="lines"><path class="js-line" d="M0,84.04L4.87,85.78L9.27,65.35L14.15,84.48L18.86,65.79L23.74,44.06L28.45,91.43L38.2,64.92L42.91,65.35L47.79,63.18L52.5,84.04L57.38,67.96L62.25,69.27L66.65,73.18L71.52,70.14L76.24,63.62L81.11,61.44L85.83,80.13L90.7,78.39L95.58,41.88L100.29,54.92L105.16,42.32L109.88,73.61L114.75,48.84L119.63,41.88L124.03,51.45L128.9,64.92L133.62,29.28L138.49,27.11L143.21,74.05L148.08,74.92L152.95,36.67L157.67,42.75L162.54,38.41L167.26,60.14L172.13,30.58L177,44.06L181.56,31.89L186.43,44.06L191.15,23.63L196.02,34.93L200.74,54.49L205.61,68.83L210.49,8.85L215.2,19.28L220.07,37.1L224.79,57.53L229.66,36.23L234.54,41.01L238.94,40.14L243.81,62.31" style="vector-effect: none; fill: none; stroke: rgb(0, 126, 255); stroke-opacity: 1; stroke-width: 2px; opacity: 1;"/></g><g class="points"/><g class="text"/></g><g class="trace scatter trace7ab99e" style="stroke-miterlimit: 2; opacity: 1;"><g class="fills"/><g class="errorbars"/><g class="lines"><path class="js-line" d="M0,71.58L4.87,74.42L9.27,78.34L23.74,74.56L28.45,75.35L38.2,72.63L42.91,73.29L47.79,72.09L52.5,71.91L57.38,73.36L62.25,72.42L71.52,68.22L76.24,67.35L81.11,65.61L85.83,64.74L95.58,60.86L100.29,59.05L105.16,58.62L109.88,55.76L114.75,52.89L119.63,52.39L128.9,51.66L133.62,50.65L138.49,50.32L143.21,49.2L148.08,47.68L152.95,47.86L162.54,44.49L167.26,44.02L172.13,44.67L177,43.04L181.56,42.54L186.43,40.22L191.15,38.26L196.02,38.15L210.49,38.15L215.2,38.84L220.07,40.36L224.79,47.71L229.66,58.4L234.54,58.76L238.94,57.75L243.81,63.18L248.53,68.67L253.4,73.18" style="vector-effect: none; fill: none; stroke: rgb(123, 210, 0); stroke-opacity: 1; stroke-dasharray: 9px, 9px; stroke-width: 2px; opacity: 1;"/></g><g class="points"/><g class="text"/></g><g class="trace scatter trace1c31b5" style="stroke-miterlimit: 2; opacity: 1;"><g class="fills"/><g class="errorbars"/><g class="lines"/><g class="points"><path class="point" transform="translate(33.33,105.78)" d="M4,0A4,4 0 1,1 0,-4A4,4 0 0,1 4,0Z" style="opacity: 1; stroke-width: 0px; fill: rgb(219, 87, 0); fill-opacity: 1;"/><path class="point" transform="translate(248.53,111.86)" d="M4,0A4,4 0 1,1 0,-4A4,4 0 0,1 4,0Z" style="opacity: 1; stroke-width: 0px; fill: rgb(219, 87, 0); fill-opacity: 1;"/><path class="point" transform="translate(253.4,163.15)" d="M4,0A4,4 0 1,1 0,-4A4,4 0 0,1 4,0Z" style="opacity: 1; stroke-width: 0px; fill: rgb(219, 87, 0); fill-opacity: 1;"/></g><g class="text"/></g></g></g></g><path class="xlines-above crisp" d="M0,0" style="fill: none;"/><path class="ylines-above crisp" d="M0,0" style="fill: none;"/><g class="overlines-above"/><g class="xaxislayer-above"><g class="xtick"><text text-anchor="middle" x="0" y="195" transform="translate(14,0)" style="font-family: 'Open Sans', verdana, arial, sans-serif; font-size: 7px; fill: rgb(0, 0, 0); fill-opacity: 1; white-space: pre; opacity: 1;">2021</text></g><g class="xtick"><text text-anchor="middle" x="0" y="195" style="font-family: 'Open Sans', verdana, arial, sans-serif; font-size: 7px; fill: rgb(0, 0, 0); fill-opacity: 1; white-space: pre; opacity: 1;" transform="translate(71.38,0)">2022</text></g><g class="xtick"><text text-anchor="middle" x="0" y="195" style="font-family: 'Open Sans', verdana, arial, sans-serif; font-size: 7px; fill: rgb(0, 0, 0); fill-opacity: 1; white-space: pre; opacity: 1;" transform="translate(128.75,0)">2023</text></g><g class="xtick"><text text-anchor="middle" x="0" y="195" style="font-family: 'Open Sans', verdana, arial, sans-serif; font-size: 7px; fill: rgb(0, 0, 0); fill-opacity: 1; white-space: pre; opacity: 1;" transform="translate(186.13,0)">2024</text></g><g class="xtick"><text text-anchor="middle" x="0" y="195" style="font-family: 'Open Sans', verdana, arial, sans-serif; font-size: 7px; fill: rgb(0, 0, 0); fill-opacity: 1; white-space: pre; opacity: 1;" transform="translate(243.66,0)">2025</text></g></g><g class="yaxislayer-above"><g class="ytick"><text text-anchor="end" x="13" y="2.4499999999999997" transform="translate(0,174.02)" style="font-family: 'Open Sans', verdana, arial, sans-serif; font-size: 7px; fill: rgb(0, 0, 0); fill-opacity: 1; white-space: pre; opacity: 1;">0</text></g><g class="ytick"><text text-anchor="end" x="13" y="2.4499999999999997" style="font-family: 'Open Sans', verdana, arial, sans-serif; font-size: 7px; fill: rgb(0, 0, 0); fill-opacity: 1; white-space: pre; opacity: 1;" transform="translate(0,130.55)">100</text></g><g class="ytick"><text text-anchor="end" x="13" y="2.4499999999999997" style="font-family: 'Open Sans', verdana, arial, sans-serif; font-size: 7px; fill: rgb(0, 0, 0); fill-opacity: 1; white-space: pre; opacity: 1;" transform="translate(0,87.09)">200</text></g><g class="ytick"><text text-anchor="end" x="13" y="2.4499999999999997" style="font-family: 'Open Sans', verdana, arial, sans-serif; font-size: 7px; fill: rgb(0, 0, 0); fill-opacity: 1; white-space: pre; opacity: 1;" transform="translate(0,43.62)">300</text></g></g><g class="overaxes-above"/></g></g><g class="polarlayer"/><g class="smithlayer"/><g class="ternarylayer"/><g class="geolayer"/><g class="funnelarealayer"/><g class="pielayer"/><g class="iciclelayer"/><g class="treemaplayer"/><g class="sunburstlayer"/><g class="glimages"/><defs id="topdefs-853eb7"><g class="clips"/><clipPath id="legend853eb7"><rect width="211" height="29" x="0" y="0"/></clipPath></defs><g class="layer-above"><g class="imagelayer"/><g class="shapelayer"/></g><g class="infolayer"><g class="legend" pointer-events="all" transform="translate(14,193.4)"><rect class="bg" shape-rendering="crispEdges" width="211" height="29" x="0" y="0" style="stroke: rgb(68, 68, 68); stroke-opacity: 1; fill: rgb(0, 0, 0); fill-opacity: 0; stroke-width: 0px;"/><g class="scrollbox" transform="" clip-path="url(#legend853eb7)"><g class="groups"><g class="traces" transform="translate(0,14.5)" style="opacity: 1;"><text class="legendtext" text-anchor="start" x="40" y="2.73" style="font-family: 'Open Sans', verdana, arial, sans-serif; font-size: 7px; fill: rgb(0, 0, 0); fill-opacity: 1; white-space: pre;">Actual</text><g class="layers" style="opacity: 1;"><g class="legendfill"/><g class="legendlines"><path class="js-line" d="M5,0h30" style="fill: none; stroke: rgb(0, 126, 255); stroke-opacity: 1; stroke-width: 5px;"/></g><g class="legendsymbols"><g class="legendpoints"/></g></g><rect class="legendtoggle" x="0" y="-9.5" width="64.25" height="19" style="fill: rgb(0, 0, 0); fill-opacity: 0;"/></g><g class="traces" transform="translate(66.75,14.5)" style="opacity: 1;"><text class="legendtext" text-anchor="start" x="40" y="2.73" style="font-family: 'Open Sans', verdana, arial, sans-serif; font-size: 7px; fill: rgb(0, 0, 0); fill-opacity: 1; white-space: pre;">Forecast</text><g class="layers" style="opacity: 1;"><g class="legendfill"/><g class="legendlines"><path class="js-line" d="M5,0h30" style="fill: none; stroke: rgb(123, 210, 0); stroke-opacity: 1; stroke-dasharray: 15px, 15px; stroke-width: 5px;"/></g><g class="legendsymbols"><g class="legendpoints"/></g></g><rect class="legendtoggle" x="0" y="-9.5" width="72.1875" height="19" style="fill: rgb(0, 0, 0); fill-opacity: 0;"/></g><g class="traces" transform="translate(141.4375,14.5)" style="opacity: 1;"><text class="legendtext" text-anchor="start" x="40" y="2.73" style="font-family: 'Open Sans', verdana, arial, sans-serif; font-size: 7px; fill: rgb(0, 0, 0); fill-opacity: 1; white-space: pre;">Outlier</text><g class="layers" style="opacity: 1;"><g class="legendfill"/><g class="legendlines"/><g class="legendsymbols"><g class="legendpoints"><path class="scatterpts" transform="translate(20,0)" d="M6,0A6,6 0 1,1 0,-6A6,6 0 0,1 6,0Z" style="opacity: 1; stroke-width: 0px; fill: rgb(219, 87, 0); fill-opacity: 1;"/></g></g></g><rect class="legendtoggle" x="0" y="-9.5" width="66.234375" height="19" style="fill: rgb(0, 0, 0); fill-opacity: 0;"/></g></g></g><rect class="scrollbar" rx="20" ry="3" width="0" height="0" x="0" y="0" style="fill: rgb(128, 139, 164); fill-opacity: 1;"/></g><g class="g-gtitle"/><g class="g-xtitle"/><g class="g-ytitle"/><g class="annotation" data-index="0" style="opacity: 1;"><g class="annotation-text-g" transform="rotate(0,134.5,230.56)"><g class="cursor-pointer" transform="translate(14,225)"><rect class="bg" x="0.5" y="0.5" width="240" height="11" style="stroke-width: 1px; stroke: rgb(0, 0, 0); stroke-opacity: 0; fill: rgb(0, 0, 0); fill-opacity: 0;"/><text class="annotation-text" text-anchor="start" x="2" y="8" style="font-family: 'Open Sans', verdana, arial, sans-serif; font-size: 6px; fill: rgb(0, 0, 0); fill-opacity: 1; white-space: pre;">Orange dots represent the flagged outliers; dashed line is the ARIMA forecast.</text></g></g></g></g></svg>